<?xml version="1.0" encoding="UTF-8" standalone="no"?><!DOCTYPE svg PUBLIC "-//W3C//DTD SVG 1.1//EN" "http://www.w3.org/Graphics/SVG/1.1/DTD/svg11.dtd"><svg width="100%" height="100%" viewBox="0 0 183 183" version="1.1" xmlns="http://www.w3.org/2000/svg" xmlns:xlink="http://www.w3.org/1999/xlink" xml:space="preserve" xmlns:serif="http://www.serif.com/" style="fill-rule:evenodd;clip-rule:evenodd;stroke-linecap:round;stroke-linejoin:round;stroke-miterlimit:1.5;"><g><path d="M91.5,16.5l0,30" style="fill:none;stroke:#61c1d6;stroke-width:3px;"/><path d="M91.5,136.5l0,30" style="fill:none;stroke:#61c1d6;stroke-width:3px;"/><path d="M61.5,91.5c0,-16.557 13.443,-30 30,-30c13.24,0 24.574,8.908 28.549,20.818" style="fill:none;stroke:#61c1d6;stroke-width:3px;"/><path d="M31.5,91.5c0,-3.126 0.24,-6.197 0.702,-9.195c3.94,-25.575 24.054,-45.844 49.552,-50.016" style="fill:none;stroke:#61c1d6;stroke-width:3px;"/><path d="M181.5,91.5l-30,0" style="fill:none;stroke:#61c1d6;stroke-width:3px;"/><path d="M136.5,91.5l-30,0" style="fill:none;stroke:#61c1d6;stroke-width:3px;"/><path d="M76.5,91.5l-75,0l75,0Z" style="fill:none;stroke:#61c1d6;stroke-width:3px;"/><path d="M64.908,105.333l-60.84,0" style="fill:none;stroke:#61c1d6;stroke-width:3px;"/><path d="M17.059,82.305c4.539,-37.063 36.16,-65.805 74.441,-65.805c38.262,0 69.87,28.714 74.434,65.75" style="fill:none;stroke:#61c1d6;stroke-width:3px;"/><path d="M166.016,100.72c-4.67,36.921 -36.336,65.78 -74.516,65.78c-33.494,0 -61.825,-21.619 -71.443,-51.947" style="fill:none;stroke:#61c1d6;stroke-width:3px;"/><path d="M100.459,32.166c28.872,4.33 51.041,29.264 51.041,59.334c0,29.832 -22.508,54.7 -51.045,59.319" style="fill:none;stroke:#61c1d6;stroke-width:3px;"/><path d="M82.534,150.819c-21.126,-3.206 -38.636,-17.053 -46.487,-36.258" style="fill:none;stroke:#61c1d6;stroke-width:3px;"/><path d="M120.347,100.72c-3.975,11.913 -15.605,20.78 -28.847,20.78c-11.546,0 -21.577,-6.536 -26.592,-16.107" style="fill:none;stroke:#61c1d6;stroke-width:3px;"/><path d="M47.442,82.305c4.249,-20.433 22.373,-35.805 44.058,-35.805c24.836,0 45,20.164 45,45c0,24.836 -20.164,45 -45,45c-16.573,0 -30.642,-8.585 -38.452,-21.939" style="fill:none;stroke:#61c1d6;stroke-width:3px;"/><path d="M80.852,80.939c2.718,-2.741 6.486,-4.439 10.648,-4.439c8.279,0 15,6.721 15,15c0,8.279 -6.721,15 -15,15c-8.279,0 -15,-6.721 -15,-15" style="fill:none;stroke:#61c1d6;stroke-width:3px;"/><circle cx="91.5" cy="91.5" r="90" style="fill:none;stroke:#61c1d6;stroke-width:3px;"/></g></svg>